<?xml version="1.0" standalone="no"?>
<!DOCTYPE svg PUBLIC "-//W3C//DTD SVG 20010904//EN"
 "http://www.w3.org/TR/2001/REC-SVG-20010904/DTD/svg10.dtd">
<svg version="1.0" xmlns="http://www.w3.org/2000/svg"
 width="614.000000pt" height="614.000000pt" viewBox="0 0 614.000000 614.000000"
 preserveAspectRatio="xMidYMid meet">
<metadata>
Created by potrace 1.11, written by Peter Selinger 2001-2013
</metadata>
<g transform="translate(0.000000,614.000000) scale(0.100000,-0.100000)"
fill="#000000" stroke="none">
<path d="M2795 6050 c-529 -54 -1005 -221 -1425 -502 -203 -135 -292 -208
-476 -392 -170 -171 -259 -279 -385 -469 -649 -978 -644 -2264 12 -3242 127
-189 203 -281 378 -455 182 -182 271 -255 476 -392 491 -327 1095 -508 1695
-508 704 0 1355 225 1918 662 133 104 371 340 482 478 340 426 554 928 632
1480 17 128 17 602 0 730 -78 552 -292 1054 -632 1480 -168 211 -442 463 -660
607 -166 110 -211 137 -365 212 -311 154 -619 248 -966 296 -136 19 -554 28
-684 15z m710 -100 c1155 -175 2091 -973 2418 -2060 88 -290 122 -554 114
-885 -10 -439 -95 -789 -287 -1180 -428 -876 -1255 -1473 -2250 -1627 -194
-29 -626 -32 -820 -5 -1035 145 -1913 794 -2327 1720 -291 650 -328 1382 -103
2057 144 433 375 805 705 1135 480 481 1108 782 1790 859 189 22 573 15 760
-14z"/>
<path d="M2760 5919 c-209 -23 -463 -80 -660 -148 -859 -296 -1530 -972 -1809
-1821 -332 -1013 -63 -2121 700 -2881 423 -421 970 -703 1569 -808 337 -59
725 -56 1088 10 62 11 125 22 140 24 15 2 52 11 82 20 30 8 69 18 85 21 17 3
40 12 53 20 15 10 22 11 22 3 0 -8 4 -9 13 0 8 6 17 8 20 4 4 -3 7 -1 7 5 0 7
3 12 8 11 15 -2 52 14 52 23 0 5 4 7 9 4 5 -4 11 -3 13 2 1 4 53 29 113 55
336 147 629 348 900 621 336 338 556 697 699 1144 257 800 130 1701 -339 2402
-121 182 -200 276 -369 446 -379 378 -825 633 -1340 764 -256 65 -391 82 -701
85 -148 2 -308 -1 -355 -6z m670 -45 c415 -49 827 -193 1185 -415 122 -75 129
-81 121 -107 -6 -18 -18 -13 -134 60 -420 263 -895 411 -1399 435 -133 6 -133
6 -133 30 l0 25 118 -7 c64 -3 173 -13 242 -21z m-1096 -83 c13 -20 -7 -38
-57 -50 -117 -30 -313 -107 -487 -194 -102 -51 -188 -93 -192 -95 -22 -10 -4
39 20 56 90 64 399 199 587 257 125 39 122 38 129 26z m1145 -51 c427 -63 811
-212 1161 -452 150 -103 209 -150 346 -275 l114 -104 0 -105 0 -104 -590 0
-590 0 0 108 c-1 153 -22 202 -104 244 -57 29 -141 22 -191 -16 -43 -33 -74
-95 -75 -148 0 -21 -2 -38 -4 -38 -2 0 -12 -3 -21 -6 -10 -4 -15 -2 -13 7 2 9
-4 13 -14 11 -11 -2 -18 3 -18 13 0 15 -16 20 -55 17 -15 -2 -17 0 -6 7 11 7
8 11 -10 17 -13 5 -28 9 -34 10 -27 3 -65 17 -65 24 0 4 -21 11 -47 16 -27 4
-50 8 -53 9 -9 3 -44 16 -67 26 -16 6 -23 5 -23 -4 -1 -7 -7 -4 -14 6 -8 10
-18 17 -23 15 -4 -2 -9 168 -11 376 l-2 379 140 -7 c77 -4 198 -15 269 -26z
m-1142 -363 c2 -280 1 -287 -18 -287 -11 0 -18 4 -14 9 12 20 -16 21 -37 1
-21 -19 -23 -20 -30 -3 -5 13 -7 14 -7 3 -1 -12 -3 -13 -10 -1 -7 12 -12 11
-30 -1 -11 -8 -18 -18 -13 -23 4 -5 1 -5 -6 -1 -8 5 -21 -3 -35 -20 -12 -16
-22 -31 -22 -34 0 -3 -4 -11 -8 -17 -4 -7 -3 -21 2 -31 6 -11 8 -22 4 -25 -3
-4 7 -11 23 -17 20 -8 30 -8 32 -1 2 6 8 9 13 5 5 -3 9 2 9 10 0 9 -4 16 -9
16 -6 0 -9 9 -8 20 1 14 11 22 35 26 44 8 53 -3 14 -17 -33 -11 -40 -23 -21
-35 7 -4 16 1 21 10 5 9 15 16 22 16 8 0 16 9 19 20 5 21 27 28 27 9 0 -5 -6
-7 -12 -3 -10 6 -10 4 0 -7 9 -10 15 -10 24 -1 29 29 38 13 38 -66 l0 -78 -44
-37 c-25 -20 -50 -37 -55 -37 -6 0 -11 -7 -11 -16 0 -8 -4 -12 -10 -9 -5 3
-10 2 -10 -3 0 -5 -17 -21 -37 -35 -21 -15 -37 -29 -35 -32 4 -8 -22 -45 -31
-45 -10 0 -83 -75 -124 -127 -14 -18 -23 -40 -19 -48 3 -8 2 -14 -2 -12 -4 1
-7 -1 -7 -4 0 -4 -8 -16 -18 -27 -11 -12 -16 -26 -12 -31 3 -6 1 -11 -4 -11
-6 0 -11 -11 -11 -24 0 -13 -6 -26 -14 -29 -7 -3 -77 37 -155 89 l-141 94 -2
-489 -3 -490 91 -61 c83 -56 94 -67 115 -117 13 -32 35 -63 53 -76 17 -12 31
-20 31 -19 0 9 53 -19 72 -37 12 -12 24 -21 27 -21 3 0 27 -13 53 -28 27 -16
58 -27 70 -26 11 2 30 -5 42 -15 22 -19 19 -33 -5 -24 -8 3 -14 0 -14 -6 0 -6
-6 -11 -14 -11 -8 0 -16 -5 -18 -12 -2 -6 -14 -12 -25 -13 -26 -2 -53 -23 -53
-41 0 -8 -5 -14 -11 -14 -6 0 -9 6 -6 13 3 9 -40 11 -204 9 l-209 -3 -2 253
-3 253 -362 243 -363 243 0 -596 0 -595 25 0 c54 0 122 -55 149 -122 9 -21 16
-65 16 -98 l0 -60 108 0 c99 0 113 -3 162 -27 42 -22 60 -38 78 -73 48 -92 11
-214 -81 -262 -34 -18 -63 -23 -154 -26 l-113 -4 0 -202 0 -201 137 0 c116 0
138 -2 138 -15 0 -8 4 -21 9 -29 6 -9 5 -12 -1 -8 -6 4 -13 -2 -16 -13 -3 -11
-1 -18 4 -14 5 3 9 -2 9 -10 0 -8 -4 -17 -9 -21 -6 -3 -4 -16 4 -31 27 -53 23
-54 -231 -54 l-234 0 0 -42 -1 -43 -29 35 c-36 43 -38 59 -5 55 l25 -2 0 632
0 633 -33 -7 c-96 -22 -147 -96 -147 -216 l0 -65 -110 0 c-74 0 -122 -5 -145
-14 -19 -8 -37 -11 -40 -7 -2 5 -14 64 -26 132 -27 158 -37 512 -20 685 28
274 105 562 218 817 14 31 29 57 33 57 4 0 66 -41 138 -90 l132 -90 0 319 0
319 55 68 c86 104 124 144 137 144 7 0 133 -81 281 -179 l267 -178 0 407 c0
375 1 408 18 422 31 28 234 136 347 184 123 53 355 134 370 130 6 -2 11 -108
12 -289z m2736 -267 c22 -18 44 -90 27 -90 -3 0 -30 25 -60 55 l-54 55 30 0
c17 0 43 -9 57 -20z m-2860 -45 c-3 -9 -8 -14 -10 -11 -3 3 -2 9 2 15 9 16 15
13 8 -4z m-47 -32 c-10 -10 -19 5 -10 18 6 11 8 11 12 0 2 -7 1 -15 -2 -18z
m94 13 c0 -3 -4 -8 -10 -11 -5 -3 -10 -1 -10 4 0 6 5 11 10 11 6 0 10 -2 10
-4z m793 -23 c-7 -2 -19 -2 -25 0 -7 3 -2 5 12 5 14 0 19 -2 13 -5z m37 -48
c0 17 1 17 19 1 11 -10 24 -15 30 -12 5 3 15 1 23 -6 7 -7 22 -15 33 -16 11
-2 24 -8 30 -13 5 -5 19 -9 31 -9 13 0 26 -5 30 -11 3 -6 14 -9 24 -6 14 3 17
1 13 -11 -4 -10 -2 -13 5 -8 7 4 24 -1 40 -12 35 -25 144 -76 156 -73 5 1 6
-5 3 -14 -5 -10 0 -15 13 -15 10 0 25 -7 34 -15 8 -8 22 -15 30 -15 9 0 16 -7
16 -15 0 -14 38 -41 53 -37 4 1 7 -3 7 -9 0 -6 17 -28 38 -48 42 -41 74 -81
67 -81 -3 0 0 -6 7 -14 7 -8 16 -10 19 -4 3 5 6 -5 6 -21 0 -17 8 -40 18 -51
10 -11 14 -20 10 -20 -4 0 0 -9 10 -20 10 -11 15 -20 12 -20 -3 0 6 -28 19
-62 14 -35 25 -80 25 -100 0 -21 3 -38 7 -38 7 0 13 -119 10 -200 -1 -25 -2
-61 -2 -80 -1 -19 -7 -41 -13 -48 -7 -7 -18 -32 -24 -55 -10 -35 -13 -39 -19
-22 -4 11 -5 24 -2 29 5 9 6 46 3 88 0 10 -17 24 -37 33 -47 19 -60 19 -43 -1
11 -14 10 -16 -11 -12 -20 2 -24 -1 -22 -16 2 -11 -1 -15 -7 -11 -6 3 -11 1
-11 -5 0 -6 7 -13 16 -17 13 -5 12 -8 -5 -25 -24 -22 -27 -30 -7 -22 9 3 13
-2 11 -18 -1 -13 -3 -30 -4 -38 -1 -13 -2 -13 -11 0 -9 13 -11 13 -20 0 -5 -8
-10 -19 -10 -25 0 -5 -13 -19 -28 -30 l-27 -20 22 28 c19 25 22 67 3 67 -13 0
-50 -37 -50 -50 0 -10 -3 -10 -15 0 -12 10 -13 15 -4 20 6 4 8 13 5 19 -9 14
-36 15 -36 1 0 -5 -3 -9 -7 -9 -20 3 -26 -2 -13 -11 12 -8 12 -10 1 -10 -11 0
-11 -3 -1 -15 14 -17 45 -21 35 -5 -11 18 8 11 32 -12 13 -12 23 -30 23 -40 0
-10 8 -22 18 -26 22 -9 28 -34 5 -25 -9 4 -14 2 -11 -3 4 -5 -8 -9 -24 -9 -20
0 -34 -7 -42 -20 -6 -11 -21 -30 -33 -42 -13 -12 -23 -28 -23 -36 0 -7 -6 -19
-12 -26 -10 -10 -10 -15 -1 -18 14 -5 -20 -43 -38 -43 -6 0 -24 -13 -39 -30
-15 -16 -33 -30 -39 -30 -6 0 -11 -4 -11 -8 0 -4 -16 -23 -35 -42 -19 -19 -35
-41 -35 -48 0 -7 -8 -12 -17 -10 -11 2 -17 -2 -15 -10 1 -8 -2 -11 -8 -7 -6 4
-28 -11 -49 -33 -22 -22 -49 -43 -60 -47 -12 -3 -19 -10 -16 -15 3 -4 -2 -10
-10 -13 -9 -4 -12 -1 -8 9 5 14 3 14 -16 3 -12 -8 -19 -19 -17 -26 3 -6 -5
-19 -16 -30 -12 -10 -19 -13 -15 -8 3 6 2 17 -4 25 -5 9 -9 10 -9 3 0 -6 -13
-16 -30 -22 -16 -5 -30 -15 -30 -20 0 -6 -7 -11 -17 -11 -9 0 -14 -3 -10 -6 3
-4 -4 -15 -16 -26 l-22 -19 23 11 c15 7 22 7 22 0 0 -5 -3 -10 -7 -11 -5 0
-27 -2 -49 -5 -38 -5 -44 -3 -69 28 -15 18 -24 27 -20 21 3 -7 2 -13 -3 -13
-6 0 -13 11 -16 24 -4 17 -15 26 -36 31 -16 4 -30 11 -30 16 0 5 -7 9 -16 9
-10 0 -14 6 -10 15 3 9 0 15 -9 15 -8 0 -15 5 -15 11 0 6 -9 8 -22 4 -17 -6
-20 -4 -15 9 4 10 3 15 -3 11 -6 -3 -10 -2 -10 3 0 8 -38 27 -87 44 -4 2 -32
26 -62 53 -29 28 -59 49 -66 47 -7 -1 -15 8 -18 20 -5 18 -9 20 -18 11 -10
-10 -20 -5 -46 22 -19 20 -38 33 -44 30 -5 -3 -6 1 -3 9 5 12 -1 16 -24 16
-17 0 -34 5 -37 10 -4 6 -9 8 -13 6 -4 -2 -8 7 -9 21 0 14 -7 29 -15 34 -10 7
-10 9 2 9 12 0 15 10 13 48 -1 26 -3 48 -4 50 -1 1 -2 6 -3 12 0 5 -6 14 -13
21 -6 6 -9 18 -6 27 4 10 2 13 -5 8 -6 -3 -16 3 -22 14 -6 11 -15 18 -21 15
-5 -4 -9 -1 -9 4 0 6 -9 11 -20 11 -11 0 -20 3 -20 8 0 4 -4 13 -9 21 -8 12
-12 13 -25 1 -14 -11 -16 -10 -10 3 5 13 -2 15 -43 13 -38 -3 -55 -10 -80 -34
-34 -32 -43 -32 -43 4 0 12 -4 24 -10 26 -11 4 -17 159 -6 176 4 7 2 12 -6 12
-10 0 -10 2 1 9 8 5 12 18 8 30 -2 11 1 39 9 61 8 23 12 45 9 50 -3 4 1 10 7
13 10 3 10 8 -1 21 -12 14 -12 19 -2 25 6 4 11 12 10 17 -2 10 4 31 27 82 8
18 9 32 4 32 -15 0 -12 20 3 20 6 1 35 48 62 106 28 58 58 112 69 119 11 8 15
18 11 26 -6 8 -4 10 5 4 10 -6 12 -4 7 8 -4 11 -1 17 9 17 8 0 27 11 42 25 63
58 107 95 114 95 4 0 8 7 8 16 0 8 4 13 9 10 4 -3 28 12 51 34 24 22 45 38 48
35 2 -2 10 1 18 8 38 34 41 36 52 25 8 -8 13 -7 18 5 3 9 10 14 15 11 6 -3 15
-1 22 4 11 9 85 39 112 45 6 2 25 10 44 20 19 9 40 17 48 17 8 0 11 5 7 13 -6
10 -4 10 7 0 7 -7 23 -13 36 -13 13 0 23 6 24 13 0 9 2 9 6 -1 2 -6 9 -9 15
-6 13 8 98 17 170 18 32 1 58 5 58 10 0 5 11 -1 25 -14 22 -21 25 -22 25 -5z
m-2140 -30 c10 -12 2 -25 -41 -75 -30 -33 -55 -60 -56 -60 -2 0 -3 13 -3 29 0
20 13 45 38 75 42 50 45 52 62 31z m4425 -170 c66 -85 162 -225 171 -250 5
-11 -1 -15 -19 -15 -19 0 -34 14 -68 67 -24 37 -74 107 -111 157 -48 63 -68
99 -68 119 0 26 2 28 16 16 9 -7 44 -50 79 -94z m-1791 49 c5 -14 4 -15 -9 -4
-17 14 -19 20 -6 20 5 0 12 -7 15 -16z m81 -104 c3 -5 1 -10 -4 -10 -6 0 -11
5 -11 10 0 6 2 10 4 10 3 0 8 -4 11 -10z m1683 -124 c29 -41 52 -77 52 -80 0
-3 -25 -6 -55 -6 l-55 0 0 -630 c0 -627 0 -630 20 -630 54 0 128 56 149 113 6
16 11 59 11 97 l0 68 123 4 c93 3 130 8 155 22 19 9 35 16 37 14 10 -11 37
-257 42 -380 l6 -148 -271 0 -272 0 0 -494 0 -494 125 -81 c69 -45 125 -86
125 -92 0 -22 -132 -241 -214 -354 l-36 -50 0 287 0 287 -332 223 c-183 123
-350 234 -370 246 l-38 21 0 -145 c0 -139 -10 -177 -25 -97 -10 52 -37 102
-81 148 -22 21 -38 43 -36 47 1 4 -3 8 -9 8 -5 0 -8 4 -5 9 7 10 -18 34 -26
25 -3 -3 -5 1 -5 8 3 21 -26 118 -35 118 -4 0 -8 9 -8 21 0 17 17 9 109 -55
60 -42 112 -76 115 -76 3 0 6 110 6 245 l0 245 365 0 365 0 0 99 0 99 -31 6
c-93 18 -147 92 -150 204 l-2 72 -96 0 c-124 0 -166 12 -217 64 -72 71 -81
166 -23 245 47 66 89 81 224 81 l116 0 -1 205 -1 205 -578 0 -578 0 0 24 c0
31 -58 156 -72 156 -6 0 -11 5 -11 10 0 7 243 10 710 10 l710 0 0 75 c0 41 4
75 8 75 5 0 32 -33 60 -74z m221 -376 c29 -60 70 -156 91 -212 l39 -103 -101
-3 c-56 -1 -108 0 -115 2 -10 4 -13 51 -13 216 l0 210 23 0 c20 0 32 -16 76
-110z m127 33 c155 -332 242 -690 260 -1070 l7 -143 -27 0 -26 0 0 88 c0 113
-15 274 -41 420 -11 64 -22 141 -24 171 -3 30 -13 71 -24 91 -10 19 -35 85
-56 145 -20 61 -62 164 -92 230 -30 66 -57 126 -60 133 -3 8 4 12 21 12 22 0
30 -10 62 -77z m-5208 14 c9 -10 -1 -42 -37 -129 -205 -482 -266 -1019 -174
-1527 16 -86 26 -174 24 -214 -2 -72 22 -148 58 -177 10 -8 39 -70 65 -137 26
-67 71 -169 100 -227 l53 -106 -27 0 c-25 0 -32 11 -92 138 -192 402 -278 815
-265 1262 11 369 79 680 222 1018 26 62 50 112 55 112 4 0 12 -6 18 -13z
m3412 -492 c-7 -8 -17 -15 -23 -15 -6 0 -2 7 9 15 25 19 30 19 14 0z m80 -59
c0 -49 -2 -54 -20 -49 -14 4 -20 14 -20 35 0 17 4 27 10 23 6 -3 10 2 10 13 0
17 8 32 17 32 2 0 3 -24 3 -54z m-2124 -1 c17 -16 14 -18 -10 -9 -9 3 -16 10
-16 15 0 13 9 11 26 -6z m188 -11 c3 -8 10 -13 16 -9 5 3 15 -3 22 -15 7 -11
17 -20 23 -20 21 0 60 -58 75 -111 10 -34 -2 -38 -23 -9 -8 11 -17 17 -21 13
-4 -4 -11 -2 -15 5 -6 10 -15 9 -45 -3 -20 -9 -34 -20 -31 -25 3 -6 -3 -10
-14 -10 -22 0 -27 -28 -12 -79 10 -37 29 -36 52 3 11 20 28 36 35 36 24 0 75
-30 69 -40 -4 -6 0 -10 8 -10 8 0 22 -9 32 -20 9 -10 20 -19 24 -18 25 3 39
-5 44 -23 4 -15 11 -20 22 -15 10 4 19 -2 25 -18 7 -18 14 -22 34 -19 19 4 26
1 26 -10 0 -16 68 -64 83 -59 5 1 17 -8 28 -20 11 -13 17 -16 13 -8 -4 8 3 5
15 -7 12 -13 28 -23 36 -23 8 0 15 -4 15 -9 0 -5 11 -12 25 -15 13 -3 29 -15
35 -26 6 -11 20 -20 30 -20 11 0 20 -4 20 -9 0 -4 -24 -7 -52 -6 -29 1 -56 -3
-60 -9 -6 -8 -10 -8 -15 0 -5 6 -24 14 -43 17 -19 4 -55 12 -80 17 -25 6 -79
16 -120 22 -41 6 -82 13 -90 16 -8 3 -20 4 -27 3 -6 -1 -14 3 -18 9 -3 5 -19
10 -35 10 -15 0 -30 7 -34 15 -3 8 -15 15 -26 15 -11 0 -23 7 -26 15 -4 8 -15
15 -26 15 -10 0 -16 5 -13 10 6 9 1 12 -27 14 -18 1 -95 59 -117 88 -20 25
-19 24 -25 118 -3 54 0 70 17 95 12 17 27 34 34 38 7 5 11 13 7 18 -3 6 4 13
16 16 13 3 19 11 16 19 -3 9 2 14 15 14 11 0 22 7 25 15 4 8 10 13 14 10 5 -3
11 -1 15 5 9 15 22 12 29 -6z m-254 -244 c0 -5 -2 -10 -4 -10 -3 0 -8 5 -11
10 -3 6 -1 10 4 10 6 0 11 -4 11 -10z m1733 -97 c-22 -8 -14 -24 10 -21 19 3
22 -2 24 -37 1 -22 7 -41 12 -43 17 -6 0 -32 -20 -32 -21 0 -26 -16 -6 -23 7
-3 5 -8 -8 -13 -11 -4 -26 -14 -34 -22 -12 -12 -17 -9 -32 19 -14 28 -19 31
-24 17 -8 -19 -40 -24 -50 -8 -4 6 -11 7 -17 4 -6 -4 -24 -7 -40 -6 -18 0 -26
-3 -22 -10 5 -7 2 -8 -6 -3 -10 6 -10 11 3 20 10 7 17 17 17 23 0 6 7 9 15 6
9 -4 18 1 22 12 5 11 13 19 19 19 12 0 84 56 112 88 9 9 21 17 27 16 5 0 4 -3
-2 -6z m-254 -213 c-13 -11 -30 -25 -37 -31 -7 -6 -16 -8 -19 -5 -8 8 18 37
27 31 5 -3 12 0 16 6 4 7 3 9 -4 5 -6 -3 -13 -2 -16 3 -4 5 6 11 21 13 38 5
40 1 12 -22z m61 -50 c0 -5 -5 -10 -11 -10 -5 0 -7 5 -4 10 3 6 8 10 11 10 2
0 4 -4 4 -10z m-568 -50 c12 -11 30 -20 39 -20 10 0 32 -18 49 -40 17 -22 36
-37 41 -34 6 3 17 0 26 -8 9 -7 25 -13 36 -13 14 0 20 -8 22 -30 8 -79 16
-106 50 -162 32 -54 85 -107 85 -86 0 10 20 -19 20 -30 0 -4 -24 -8 -52 -7
-29 0 -77 -6 -106 -14 -45 -13 -58 -13 -99 -1 -25 8 -50 12 -53 10 -4 -3 -6 7
-4 20 1 14 -2 27 -6 30 -5 3 -9 27 -9 53 0 26 -5 72 -11 102 -6 30 -11 63 -11
73 0 9 -5 17 -11 17 -6 0 -8 11 -6 25 3 14 0 30 -7 35 -7 6 -11 19 -8 30 3 11
-2 27 -11 35 -34 35 -10 49 26 15z m868 -10 c0 -5 -4 -10 -10 -10 -5 0 -10 5
-10 10 0 6 5 10 10 10 6 0 10 -4 10 -10z m-470 -10 c0 -5 -4 -10 -9 -10 -6 0
-13 5 -16 10 -3 6 1 10 9 10 9 0 16 -4 16 -10z m-975 -20 c-5 -8 -68 -30 -87
-30 -5 0 -8 7 -8 16 0 13 7 15 34 10 20 -4 37 -2 41 4 3 5 11 10 16 10 6 0 8
-4 4 -10z m-195 -20 c0 -5 -4 -10 -10 -10 -5 0 -10 5 -10 10 0 6 5 10 10 10 6
0 10 -4 10 -10z m710 0 c18 -12 2 -12 -25 0 -13 6 -15 9 -5 9 8 0 22 -4 30 -9z
m455 1 c3 -5 1 -12 -5 -16 -5 -3 -10 1 -10 9 0 18 6 21 15 7z m165 -28 c19 -3
58 -6 86 -6 48 -1 51 -3 61 -34 5 -18 6 -33 2 -33 -5 0 -9 6 -10 13 0 9 -2 9
-6 -1 -4 -9 -8 -10 -18 -2 -7 6 -30 13 -51 15 -22 3 -52 9 -69 14 -34 10 -75
10 -75 0 0 -4 -11 -6 -25 -5 -30 1 -31 10 -4 37 15 15 28 19 47 15 15 -4 43
-9 62 -13z m-600 -33 c9 -16 8 -20 -7 -21 -39 -4 -49 -5 -63 -12 -8 -4 -24 -5
-35 -3 -11 1 -26 -4 -32 -13 -10 -13 -14 -13 -21 -3 -5 7 -15 12 -23 10 -7 -2
-15 6 -17 17 -2 17 2 21 25 20 15 0 55 5 88 11 33 7 63 12 67 13 4 1 12 -8 18
-19z m-300 0 c0 -5 -7 -10 -15 -10 -8 0 -15 5 -15 10 0 6 7 10 15 10 8 0 15
-4 15 -10z m1238 -29 c63 -21 78 -30 80 -48 2 -16 -2 -23 -12 -23 -9 0 -16 4
-16 9 0 5 -11 9 -23 9 -13 0 -41 8 -61 17 -21 10 -46 18 -55 17 -32 -1 -70 20
-68 39 1 16 7 18 40 12 21 -3 73 -18 115 -32z m-1263 8 c4 -6 13 -8 19 -6 7 3
26 -5 42 -19 27 -22 28 -23 7 -24 -12 0 -31 -10 -43 -22 -11 -12 -23 -19 -26
-15 -4 4 -13 2 -21 -4 -7 -6 -13 -9 -13 -5 0 3 -12 1 -27 -6 -42 -16 -81 -17
-88 0 -7 20 2 31 24 25 11 -3 21 2 25 12 3 9 10 14 15 10 5 -3 12 -1 16 5 4 6
10 8 15 5 5 -3 20 0 34 6 l25 12 -22 18 c-18 15 -19 18 -5 19 9 0 20 -5 23
-11z m-75 -9 c0 -5 -4 -10 -10 -10 -5 0 -10 5 -10 10 0 6 5 10 10 10 6 0 10
-4 10 -10z m1074 -15 c-4 -8 -8 -15 -10 -15 -2 0 -4 7 -4 15 0 8 4 15 10 15 5
0 7 -7 4 -15z m-671 -9 c7 -18 -24 -27 -49 -13 -17 10 -17 11 1 18 30 12 42
10 48 -5z m802 4 c3 -5 1 -10 -4 -10 -6 0 -11 5 -11 10 0 6 2 10 4 10 3 0 8
-4 11 -10z m-170 -11 c11 -16 1 -19 -13 -3 -7 8 -8 14 -3 14 5 0 13 -5 16 -11z
m420 1 c3 -5 2 -10 -4 -10 -5 0 -13 5 -16 10 -3 6 -2 10 4 10 5 0 13 -4 16
-10z m-381 -24 c-10 -8 -21 -12 -23 -10 -3 2 4 11 15 18 10 8 21 12 23 10 3
-2 -4 -11 -15 -18z m-155 -21 c6 3 9 0 6 -7 -4 -9 9 -20 34 -31 36 -16 38 -19
27 -42 -6 -14 -17 -25 -23 -25 -7 0 -28 -15 -48 -34 -19 -19 -37 -31 -39 -28
-12 23 -15 66 -6 78 7 8 10 34 7 64 -5 50 -5 51 13 35 10 -9 23 -14 29 -10z
m586 15 c6 -9 72 -41 78 -38 4 3 102 -56 108 -65 4 -6 14 -7 24 -4 9 4 13 3
10 -3 -6 -10 26 -43 73 -71 17 -12 32 -26 32 -34 0 -7 16 -23 35 -36 19 -13
35 -32 35 -41 0 -21 -13 -23 -32 -5 -45 43 -136 117 -144 117 -5 0 -22 11 -37
26 -15 14 -32 22 -37 19 -6 -3 -10 1 -10 9 0 9 -9 16 -21 16 -11 0 -17 5 -14
10 3 6 -2 10 -13 10 -11 0 -30 8 -43 19 -13 10 -33 20 -43 22 -23 5 -42 59
-21 59 8 0 17 -5 20 -10z m-1284 -16 c12 -15 11 -16 -9 -10 -17 6 -21 4 -16
-8 4 -11 0 -14 -15 -13 -28 2 -27 19 2 33 12 7 23 12 23 13 1 0 8 -6 15 -15z
m1009 6 c0 -5 -5 -10 -11 -10 -5 0 -7 5 -4 10 3 6 8 10 11 10 2 0 4 -4 4 -10z
m-860 -15 c0 -8 -6 -12 -12 -10 -21 8 -69 -61 -64 -90 5 -26 43 -74 59 -75 4
0 32 -18 62 -40 30 -22 55 -36 55 -30 0 6 5 8 10 5 6 -4 8 -10 6 -14 -3 -4 23
-8 58 -7 35 1 62 -2 60 -6 -3 -4 0 -17 7 -29 8 -16 8 -20 -1 -14 -7 4 -10 2
-9 -6 2 -12 -37 -100 -70 -159 -5 -8 -17 -32 -27 -53 -11 -22 -26 -44 -34 -51
-22 -17 -57 -61 -41 -51 10 5 12 4 7 -3 -4 -7 -16 -12 -27 -12 -10 0 -19 -4
-19 -10 0 -5 -4 -10 -10 -10 -5 0 -10 5 -10 11 0 6 -13 31 -30 56 -16 24 -30
49 -30 54 0 6 -4 7 -10 4 -6 -4 -7 1 -3 11 5 13 3 16 -10 11 -11 -4 -14 -2
-11 7 3 7 -2 19 -11 26 -8 7 -15 19 -15 26 0 15 -20 55 -31 64 -11 9 -42 84
-40 98 1 6 -2 12 -7 12 -5 0 -8 10 -7 23 1 12 -6 39 -17 59 -10 22 -16 49 -13
63 3 14 7 36 10 49 3 17 16 28 40 36 19 6 43 22 53 35 13 16 22 21 29 14 7 -7
15 -6 24 5 18 20 79 21 79 1z m55 5 c8 -13 -5 -13 -25 0 -13 8 -13 10 2 10 9
0 20 -4 23 -10z m605 -10 c-20 -13 -33 -13 -25 0 3 6 14 10 23 10 15 0 15 -2
2 -10z m30 -20 c0 -5 6 -10 13 -10 21 0 39 -43 42 -97 2 -26 4 -54 4 -61 1 -7
6 -10 12 -6 7 4 6 -3 -2 -17 -7 -13 -14 -40 -16 -59 -2 -19 -8 -47 -13 -62 -6
-18 -5 -28 1 -28 5 0 2 -11 -7 -26 -9 -14 -17 -38 -16 -54 0 -15 -6 -31 -13
-34 -9 -3 -12 -15 -9 -31 3 -15 1 -24 -4 -21 -5 3 -15 -7 -23 -22 -7 -15 -14
-28 -15 -30 -1 -1 -12 2 -25 7 -24 9 -46 26 -102 77 -15 15 -34 24 -42 20 -8
-3 -15 -4 -15 -2 0 3 -3 13 -6 23 -5 15 -4 15 5 3 5 -8 13 -12 16 -8 4 3 -7
19 -22 35 -16 16 -27 35 -25 41 2 7 -1 12 -7 12 -11 0 -14 -11 -12 -45 1 -18
0 -18 -9 -3 -7 11 -7 25 0 42 6 17 6 26 0 26 -6 0 -10 9 -10 19 0 10 -7 22
-16 25 -8 3 -13 10 -10 15 3 5 -1 14 -9 21 -17 14 -9 34 11 26 7 -3 16 -1 19
4 4 6 1 10 -5 10 -6 0 -8 5 -4 11 5 8 10 6 16 -5 11 -20 32 -21 52 -1 9 10 17
11 21 5 4 -7 16 -4 33 8 15 10 41 24 57 32 17 8 52 36 78 62 43 42 48 51 42
78 -4 19 -3 30 4 30 6 0 11 -4 11 -10z m-1195 -10 c-3 -6 1 -13 9 -16 20 -8
21 -24 1 -24 -8 0 -15 -7 -15 -15 0 -9 -9 -15 -25 -15 -17 0 -25 -6 -25 -17 0
-15 -2 -16 -10 -3 -8 12 -10 12 -16 -3 -3 -9 -13 -17 -21 -17 -8 0 -11 -5 -8
-10 4 -6 3 -9 -2 -8 -4 1 -18 -2 -31 -6 -13 -4 -26 -5 -29 -2 -7 7 44 56 58
56 5 0 9 6 9 14 0 12 22 28 43 30 4 1 11 6 15 11 6 9 41 33 50 34 2 1 0 -4 -3
-9z m557 -22 c0 -4 1 -14 2 -20 1 -7 6 -16 11 -20 6 -5 5 -8 -3 -8 -7 0 -11
-4 -8 -8 2 -4 1 -13 -3 -20 -9 -16 -71 22 -71 44 0 30 66 59 72 32z m-409 -13
c-3 -9 -8 -14 -10 -11 -3 3 -2 9 2 15 9 16 15 13 8 -4z m-135 -58 c14 4 14 3
2 -5 -16 -12 -30 -7 -29 11 0 9 2 9 5 0 3 -7 13 -9 22 -6z m1777 -27 c-3 -5
-10 -10 -16 -10 -5 0 -9 5 -9 10 0 6 7 10 16 10 8 0 12 -4 9 -10z m-1840 -30
c-3 -5 -12 -10 -18 -10 -7 0 -6 4 3 10 19 12 23 12 15 0z m1850 -8 c-3 -3 -11
0 -18 7 -9 10 -8 11 6 5 10 -3 15 -9 12 -12z m35 -6 c0 -3 -4 -8 -10 -11 -5
-3 -10 -1 -10 4 0 6 5 11 10 11 6 0 10 -2 10 -4z m-2102 -76 c-23 -22 -46 -40
-50 -40 -4 0 -8 -9 -8 -20 0 -13 -7 -20 -19 -20 -11 0 -21 -5 -23 -10 -3 -11
-78 -21 -78 -10 0 3 12 13 28 22 15 9 41 30 57 47 17 17 36 31 43 31 6 0 12 5
12 10 0 12 36 28 62 29 12 1 4 -12 -24 -39z m2182 0 c0 -5 -5 -10 -11 -10 -5
0 -7 5 -4 10 3 6 8 10 11 10 2 0 4 -4 4 -10z m190 -70 c0 -5 7 -10 16 -10 8 0
12 -4 9 -10 -3 -5 -1 -10 5 -10 6 0 8 -5 5 -10 -3 -6 1 -13 9 -16 9 -3 16 -12
16 -20 0 -8 5 -14 10 -14 6 0 10 -6 10 -12 1 -16 46 -68 58 -68 5 0 12 -14 16
-31 4 -20 10 -28 17 -23 8 4 9 3 5 -5 -4 -6 1 -23 12 -39 10 -15 25 -48 33
-74 7 -27 17 -48 21 -48 4 0 8 -7 8 -15 0 -13 -3 -13 -20 -3 -11 7 -19 17 -18
23 3 20 -27 70 -64 107 -21 20 -40 48 -44 63 -4 15 -13 29 -20 32 -8 3 -14 9
-14 15 0 5 4 7 9 3 5 -3 3 8 -5 25 -9 17 -20 27 -26 23 -7 -4 -9 -1 -6 9 4 9
-4 26 -18 41 -28 31 -49 77 -34 77 6 0 10 -4 10 -10z m-100 -10 c0 -5 -4 -10
-10 -10 -5 0 -10 5 -10 10 0 6 5 10 10 10 6 0 10 -4 10 -10z m-1670 -48 c0 -5
-7 -9 -15 -9 -8 0 -15 4 -15 9 0 4 7 8 15 8 8 0 15 -4 15 -8z m-765 -42 c3 -5
-1 -10 -9 -10 -9 0 -16 -6 -16 -13 0 -7 -10 -23 -23 -37 -27 -30 -71 -92 -73
-102 -1 -5 -2 -15 -3 -24 0 -8 -5 -13 -10 -9 -5 3 -11 -5 -13 -17 -2 -18 -10
-23 -37 -24 -18 -1 -37 -8 -42 -15 -7 -11 -9 -10 -9 3 0 9 5 20 10 23 6 3 10
15 10 25 0 17 63 127 80 140 3 3 10 13 13 23 4 11 16 21 27 24 11 3 20 9 20
14 0 12 67 11 75 -1z m782 -42 c-3 -7 -5 -2 -5 12 0 14 2 19 5 13 2 -7 2 -19
0 -25z m603 2 c0 -5 -5 -10 -11 -10 -5 0 -7 5 -4 10 3 6 8 10 11 10 2 0 4 -4
4 -10z m1171 -27 c13 -16 12 -17 -3 -4 -17 13 -22 21 -14 21 2 0 10 -8 17 -17z
m-1461 -33 c0 -5 -2 -10 -4 -10 -3 0 -8 5 -11 10 -3 6 -1 10 4 10 6 0 11 -4
11 -10z m81 -23 l11 -22 -21 22 c-22 23 -28 39 -11 28 5 -3 15 -16 21 -28z
m1554 23 c3 -5 1 -10 -4 -10 -6 0 -11 5 -11 10 0 6 2 10 4 10 3 0 8 -4 11 -10z
m-1830 -90 c3 -5 2 -10 -4 -10 -5 0 -13 5 -16 10 -3 6 -2 10 4 10 5 0 13 -4
16 -10z m1675 6 c0 -3 -4 -8 -10 -11 -5 -3 -10 -1 -10 4 0 6 5 11 10 11 6 0
10 -2 10 -4z m52 -18 c2 -16 9 -22 21 -20 18 3 24 -14 6 -20 -6 -2 0 -18 14
-39 13 -19 26 -44 29 -55 5 -18 2 -20 -31 -14 -21 4 -49 1 -68 -7 -18 -7 -33
-10 -33 -6 0 4 -6 -2 -14 -12 -8 -11 -12 -23 -10 -27 2 -4 -5 -13 -17 -22 -12
-8 -18 -19 -15 -24 3 -6 0 -13 -6 -15 -7 -3 -4 -6 8 -6 11 -1 29 -7 39 -15 11
-8 24 -13 30 -12 5 2 7 1 3 -1 -14 -8 -8 -25 7 -20 8 4 17 2 20 -3 3 -4 0 -10
-7 -12 -9 -3 -8 -9 4 -22 10 -9 14 -24 11 -33 -4 -10 -2 -14 4 -10 6 4 21 -14
34 -41 13 -26 30 -51 37 -55 6 -4 12 -15 12 -24 0 -9 6 -13 14 -10 8 3 20 0
26 -8 6 -8 18 -11 26 -8 8 3 14 0 14 -6 0 -6 7 -11 15 -11 8 0 15 -6 15 -12 0
-9 4 -8 10 2 9 14 16 -58 13 -127 -1 -16 3 -20 15 -16 13 4 12 2 -3 -10 -11
-9 -15 -17 -8 -17 7 0 10 -7 7 -15 -4 -8 -2 -15 3 -15 5 0 10 -7 10 -15 0 -8
-4 -12 -9 -9 -13 8 -9 -41 4 -54 9 -9 9 -12 -3 -12 -11 0 -12 -2 0 -9 10 -6
11 -13 2 -29 -8 -14 -8 -23 -1 -27 8 -5 7 -12 -2 -23 -11 -13 -10 -15 4 -9 13
4 16 2 11 -11 -3 -9 -13 -25 -21 -34 -13 -16 -13 -18 2 -24 21 -8 21 -24 -1
-25 -17 -1 -17 -2 0 -6 24 -6 22 -23 -4 -23 -11 0 -18 -4 -14 -10 3 -5 12 -7
20 -3 8 3 15 1 15 -5 0 -5 -9 -12 -21 -15 -12 -3 -19 -11 -16 -19 2 -7 -5 -26
-16 -42 -13 -18 -20 -43 -19 -67 1 -28 -3 -42 -17 -51 -10 -6 -17 -18 -14 -25
3 -7 -2 -13 -10 -13 -8 0 -18 7 -21 16 -4 10 -14 14 -26 11 -11 -3 -26 0 -33
7 -14 14 -40 10 -31 -5 3 -5 0 -9 -6 -9 -6 0 -13 7 -16 15 -5 11 -13 13 -28 9
-11 -4 -43 -9 -71 -10 -69 -4 -89 -8 -96 -16 -3 -5 -30 -16 -60 -27 -30 -10
-53 -24 -51 -31 1 -6 -2 -9 -7 -6 -16 10 -60 -15 -54 -30 4 -10 -3 -14 -21
-14 -14 0 -26 -4 -26 -10 0 -5 -7 -10 -15 -10 -16 0 -21 -15 -7 -23 4 -2 2 -3
-4 -1 -6 1 -17 -5 -25 -15 -21 -25 -50 -91 -44 -101 3 -5 1 -11 -3 -14 -5 -3
-8 -21 -6 -41 4 -57 15 -128 20 -137 3 -4 -10 -8 -28 -8 -22 0 -37 -7 -46 -20
-13 -22 -37 -28 -29 -7 3 8 -6 12 -26 11 -17 0 -33 -6 -35 -13 -3 -9 -8 -9
-20 1 -12 10 -16 10 -19 1 -4 -10 -10 -10 -25 -2 -15 8 -19 8 -14 0 5 -8 0 -8
-16 -3 -22 8 -51 8 -73 1 -5 -2 -21 1 -34 5 -16 6 -26 4 -32 -5 -8 -12 -11
-11 -19 1 -6 10 -10 11 -10 3 0 -7 -5 -13 -11 -13 -6 0 -9 7 -5 15 4 12 0 14
-19 9 -16 -4 -25 -2 -25 5 0 9 -5 9 -20 1 -14 -7 -20 -7 -20 0 0 5 -7 10 -15
10 -23 0 -85 33 -85 44 0 6 16 21 35 34 41 26 41 29 15 62 -17 21 -21 23 -30
10 -9 -13 -12 -12 -25 4 -8 11 -15 23 -15 26 0 17 48 60 67 60 12 0 28 7 37
15 8 8 20 15 26 15 6 0 8 5 5 11 -4 6 -13 8 -20 6 -6 -3 -20 4 -29 15 -11 12
-25 18 -36 15 -11 -3 -25 1 -31 9 -10 12 -13 12 -23 -1 -9 -13 -13 -11 -23 10
-9 20 -8 28 4 40 8 8 11 19 8 25 -10 16 7 12 28 -8 13 -10 17 -11 12 -3 -6 11
-4 13 8 8 10 -4 20 0 26 11 6 9 11 13 11 8 0 -5 9 -1 20 9 11 10 20 14 20 9 0
-5 4 -4 8 1 4 6 24 19 45 29 20 11 37 23 37 28 0 4 6 8 14 8 7 0 16 9 19 21 3
12 10 18 15 15 5 -3 12 3 15 14 3 12 14 20 26 20 11 0 25 9 31 19 6 13 17 17
30 14 16 -4 19 -2 14 12 -5 12 -2 16 12 13 13 -2 19 3 18 15 -1 12 6 17 23 17
13 0 21 4 18 10 -11 17 5 32 21 19 11 -9 14 -7 14 10 0 11 4 21 8 21 5 0 17 8
28 18 10 9 26 17 34 17 8 0 24 14 35 31 11 17 27 28 34 26 10 -3 12 1 7 14 -6
15 -5 16 5 7 15 -15 49 1 49 22 0 8 4 15 10 15 5 0 6 8 3 17 -5 13 -3 15 13 9
43 -18 57 -19 52 -5 -2 8 -15 16 -29 17 -13 2 -27 7 -31 10 -11 11 -19 102 -9
102 11 0 12 108 0 116 -5 3 -5 13 1 25 7 13 7 19 0 19 -5 0 -10 7 -10 15 0 8
-6 15 -12 16 -7 0 -4 4 7 9 11 5 15 9 9 9 -6 1 -10 20 -9 49 1 26 -2 55 -7 64
-5 10 -4 19 2 23 15 9 12 55 -4 61 -18 7 -9 44 11 44 8 0 11 5 8 10 -3 6 -2
10 4 10 5 0 12 -6 14 -12 3 -8 6 -6 6 5 1 9 8 17 16 17 8 0 24 9 34 19 11 11
21 17 24 15 6 -6 70 18 85 33 7 7 20 13 29 13 10 0 13 6 9 16 -9 23 24 46 43
31 12 -10 13 -9 8 6 -5 13 -3 17 5 14 15 -5 68 21 83 41 6 7 17 12 25 10 9 -2
14 4 14 15 -2 13 1 15 10 7 9 -7 16 -3 26 15 7 14 17 25 21 25 4 0 5 9 2 20
-3 11 -1 20 5 20 6 0 12 -10 14 -22z m-3712 -198 c0 -110 -2 -200 -4 -200 -15
0 -186 359 -186 390 0 6 41 10 95 10 l95 0 0 -200z m2380 174 c0 -8 -4 -12
-10 -9 -5 3 -10 13 -10 21 0 8 5 12 10 9 6 -3 10 -13 10 -21z m1210 -4 c0 -5
-2 -10 -4 -10 -3 0 -8 5 -11 10 -3 6 -1 10 4 10 6 0 11 -4 11 -10z m-1165 -19
c-3 -6 -11 -8 -17 -5 -6 4 -5 9 3 15 16 10 23 4 14 -10z m-175 -11 c0 -5 -5
-10 -11 -10 -5 0 -7 5 -4 10 3 6 8 10 11 10 2 0 4 -4 4 -10z m1731 -74 c23
-48 23 -47 5 -40 -8 3 -22 23 -30 45 -9 21 -20 39 -26 39 -5 0 -10 7 -10 17 0
14 2 14 21 -3 11 -10 29 -37 40 -58z m-3063 46 c2 -7 -3 -12 -11 -12 -8 0 -22
-18 -32 -40 -10 -22 -24 -40 -30 -40 -7 0 -15 -15 -17 -32 -9 -60 -32 -103
-50 -92 -5 3 -16 0 -24 -7 -12 -10 -13 -9 -8 7 4 10 11 25 17 32 5 6 7 12 4
12 -6 0 5 30 41 113 11 25 29 46 52 57 38 20 51 21 58 2z m2566 -27 c-10 -8
-23 -14 -29 -14 -5 -1 1 8 15 19 14 10 27 17 29 14 3 -2 -4 -11 -15 -19z
m-1194 5 c0 -5 -4 -10 -9 -10 -6 0 -13 5 -16 10 -3 6 1 10 9 10 9 0 16 -4 16
-10z m1260 0 c0 -5 -7 -10 -16 -10 -8 0 -12 5 -9 10 3 6 10 10 16 10 5 0 9 -4
9 -10z m-1260 -30 c0 -5 -5 -10 -11 -10 -5 0 -7 5 -4 10 3 6 8 10 11 10 2 0 4
-4 4 -10z m-1385 -10 c3 -5 1 -10 -4 -10 -6 0 -11 5 -11 10 0 6 2 10 4 10 3 0
8 -4 11 -10z m35 0 c0 -5 -4 -10 -10 -10 -5 0 -10 5 -10 10 0 6 5 10 10 10 6
0 10 -4 10 -10z m2880 -11 c0 -6 -4 -7 -10 -4 -5 3 -10 11 -10 16 0 6 5 7 10
4 6 -3 10 -11 10 -16z m-942 -2 c7 -6 12 -6 12 0 0 5 11 10 24 11 27 2 62 -31
51 -49 -5 -6 -8 -21 -9 -33 -1 -20 -16 -25 -78 -27 -10 0 -18 -3 -18 -7 0 -4
-20 -14 -44 -21 -45 -13 -45 -13 -80 23 -20 19 -36 42 -36 49 0 43 137 84 178
54z m939 -39 c-3 -8 -6 -5 -6 6 -1 11 2 17 5 13 3 -3 4 -12 1 -19z m143 2 c0
-5 -5 -10 -11 -10 -5 0 -7 5 -4 10 3 6 8 10 11 10 2 0 4 -4 4 -10z m24 -33 c3
3 6 1 6 -5 0 -7 -6 -12 -12 -12 -9 -1 -8 -4 2 -13 8 -7 15 -16 16 -22 3 -30
18 -56 30 -51 8 3 11 0 7 -10 -3 -7 -9 -14 -14 -14 -5 0 -9 -4 -9 -10 0 -5 7
-10 15 -10 18 0 20 -17 3 -22 -7 -3 -8 -10 -3 -17 9 -16 15 -132 6 -146 -6
-11 -7 -18 -9 -59 -3 -48 -15 -21 -14 31 0 30 -7 61 -19 82 -16 27 -17 32 -4
28 23 -9 18 10 -7 27 -12 9 -17 16 -11 16 12 0 9 43 -5 64 -4 6 -7 36 -8 66
-1 30 -5 63 -9 74 -7 16 -5 17 12 8 11 -6 23 -8 27 -5z m-754 -17 c0 -5 -4
-10 -10 -10 -5 0 -10 5 -10 10 0 6 5 10 10 10 6 0 10 -4 10 -10z m625 -1 c11
-16 1 -19 -13 -3 -7 8 -8 14 -3 14 5 0 13 -5 16 -11z m-665 -9 c0 -5 -5 -10
-11 -10 -5 0 -7 5 -4 10 3 6 8 10 11 10 2 0 4 -4 4 -10z m-40 -30 c0 -5 -5
-10 -11 -10 -5 0 -7 5 -4 10 3 6 8 10 11 10 2 0 4 -4 4 -10z m-2236 -12 c-3
-5 7 -8 23 -6 22 2 29 -1 31 -18 3 -23 74 -61 81 -43 1 5 9 2 15 -7 7 -9 26
-17 43 -18 20 -1 29 -5 26 -13 -3 -7 2 -13 10 -13 8 0 18 6 20 13 3 7 6 5 6
-5 1 -19 21 -26 21 -7 0 5 5 7 10 4 6 -4 7 -11 4 -17 -5 -7 -1 -9 9 -5 9 3 18
0 21 -9 3 -9 10 -13 15 -9 5 3 12 1 16 -4 3 -6 21 -9 41 -7 36 3 54 -8 32 -18
-7 -3 0 -4 15 -1 17 4 36 0 45 -7 15 -12 16 -11 3 5 -20 25 -6 33 15 9 9 -11
23 -18 30 -15 8 3 14 -1 14 -8 1 -9 6 -7 16 6 12 16 16 17 23 6 5 -7 14 -11
20 -7 7 5 9 1 5 -9 -4 -9 -12 -14 -19 -11 -9 3 -11 -4 -5 -29 4 -19 6 -36 3
-38 -2 -3 0 -8 6 -12 6 -3 11 -2 11 3 0 6 7 12 15 16 13 4 14 2 5 -14 -6 -11
-17 -20 -26 -20 -12 0 -14 -15 -10 -88 l4 -89 -36 18 c-19 10 -39 16 -44 13
-5 -3 -8 -2 -7 3 4 20 -2 34 -12 28 -6 -4 -16 0 -22 9 -17 22 -57 24 -70 4
-10 -14 -5 -23 28 -53 22 -19 46 -35 53 -35 6 0 12 -5 12 -12 0 -6 3 -8 7 -5
3 4 15 0 25 -10 10 -9 18 -13 18 -10 0 4 9 -2 20 -13 12 -12 25 -18 30 -15 6
4 10 2 10 -4 0 -6 11 -13 25 -17 14 -3 25 -10 25 -14 0 -5 9 -6 20 -3 12 3 20
0 20 -6 0 -7 5 -9 10 -6 17 10 11 23 -12 28 -20 3 -21 5 -6 11 11 5 24 1 39
-13 16 -15 18 -21 8 -21 -10 -1 -10 -3 3 -11 10 -5 15 -16 12 -24 -7 -17 11
-21 21 -4 5 7 14 4 26 -7 19 -17 20 -17 13 1 -7 17 -6 18 8 5 8 -8 13 -23 10
-34 -3 -13 -1 -17 6 -12 8 5 10 1 6 -9 -5 -11 -2 -16 7 -15 25 4 52 0 46 -6
-9 -9 16 -32 30 -27 7 3 16 -2 19 -11 4 -11 13 -15 27 -10 16 5 19 3 14 -10
-4 -11 -3 -15 4 -10 6 4 14 3 18 -2 10 -16 60 -44 75 -44 10 0 13 -6 10 -15
-4 -10 0 -15 10 -15 18 0 20 -1 86 -60 25 -22 49 -40 54 -40 4 0 22 -11 38
-26 17 -14 37 -23 44 -20 8 3 14 -1 14 -8 0 -8 21 -28 48 -45 97 -62 101 -71
36 -74 -26 -1 -43 -9 -52 -22 l-13 -20 5 20 c6 20 6 20 -9 1 -8 -11 -15 -25
-15 -32 0 -14 25 -25 43 -19 12 4 77 -75 77 -95 0 -11 -12 -13 -84 -14 -27 -1
-51 -6 -53 -12 -2 -7 17 -22 42 -34 40 -19 51 -33 43 -57 -2 -5 -6 -7 -10 -5
-5 1 -8 -3 -8 -9 0 -7 -10 -9 -25 -7 -14 3 -28 1 -31 -4 -3 -5 -12 -7 -20 -4
-8 3 -11 0 -8 -8 8 -21 -55 -7 -67 15 -5 11 -16 19 -24 19 -8 0 -15 4 -15 9 0
5 -10 13 -21 16 -13 5 -17 10 -11 14 7 4 -3 14 -23 25 -19 11 -42 30 -51 44
-12 18 -18 21 -24 12 -6 -10 -13 -8 -31 9 -26 24 -35 26 -42 9 -3 -8 -6 -5 -6
6 -1 13 -6 17 -21 13 -10 -3 -21 0 -23 7 -3 8 -12 8 -36 -1 -17 -6 -29 -7 -25
-2 3 5 -2 10 -10 10 -9 1 -22 2 -28 3 -7 1 -25 -1 -41 -5 -16 -5 -25 -4 -22 2
9 13 -49 11 -63 -3 -9 -9 -12 -9 -12 0 0 12 -14 11 -82 -4 -16 -3 -28 -11 -28
-18 0 -8 -9 -12 -22 -9 -29 6 -63 -46 -52 -80 6 -18 5 -20 -8 -10 -8 7 -19 9
-23 5 -5 -4 -5 -2 -1 5 3 6 2 14 -4 18 -5 3 -10 1 -10 -6 0 -8 -7 -6 -19 5
-10 9 -25 14 -35 10 -9 -3 -16 -1 -16 5 0 9 -5 9 -20 1 -15 -8 -18 -8 -14 3 3
8 -6 21 -20 31 -25 15 -26 15 -26 -1 -1 -14 -4 -12 -15 7 -7 14 -16 24 -20 22
-3 -2 -15 7 -26 20 -17 20 -18 21 -12 3 5 -14 -2 -11 -24 13 -17 17 -36 32
-42 32 -6 0 -11 5 -11 10 0 6 -19 29 -42 50 -23 22 -37 40 -32 40 5 0 4 4 -2
8 -16 11 -53 77 -57 101 -2 13 -8 26 -13 29 -12 9 -15 62 -3 62 5 0 9 -6 9
-14 0 -8 7 -17 16 -20 17 -6 17 6 0 92 -3 12 0 22 6 22 6 0 5 6 -3 16 -10 12
-10 17 0 23 7 5 13 12 13 17 0 5 3 8 7 7 11 -3 10 110 -1 125 -6 7 -7 26 -3
45 12 52 16 167 6 167 -6 0 -9 8 -9 18 0 9 -3 25 -7 35 -4 9 -3 17 2 17 13 0
12 63 -1 72 -7 5 -5 8 6 8 11 0 16 7 15 20 -1 11 -4 20 -7 20 -4 0 -7 7 -7 15
0 8 4 15 8 15 4 0 5 9 2 21 -4 14 -12 19 -25 16 -11 -3 -22 2 -29 14 -14 27
-6 35 42 43 l41 7 -23 20 c-13 11 -37 29 -55 40 -18 11 -35 26 -38 35 -3 8
-11 12 -17 8 -7 -4 -9 -3 -6 3 3 5 13 10 21 10 8 0 13 -4 10 -9z m-130 -53 c3
-8 0 -15 -6 -15 -7 0 -9 -13 -5 -35 3 -19 2 -35 -4 -35 -5 0 -9 -8 -9 -17 0
-28 -17 -1 -24 37 -4 26 -1 42 11 58 21 26 29 27 37 7z m4191 5 c14 -23 -144
-279 -276 -450 -72 -92 -74 -94 -77 -64 -2 25 10 48 64 120 81 107 156 221
213 327 40 72 61 91 76 67z m-1758 -40 c1 -16 -1 -17 -12 -7 -7 6 -11 15 -8
20 8 13 19 7 20 -13z m-2369 -15 c-3 -3 -9 2 -12 12 -6 14 -5 15 5 6 7 -7 10
-15 7 -18z m1462 15 c0 -5 -2 -10 -4 -10 -3 0 -8 5 -11 10 -3 6 -1 10 4 10 6
0 11 -4 11 -10z m-1577 -75 c2 -14 8 -30 15 -33 6 -4 9 -16 7 -27 -2 -11 -4
-23 -4 -27 -1 -5 -11 -6 -22 -5 -20 3 -54 59 -43 70 3 3 7 18 8 33 2 16 4 33
5 37 2 18 30 -22 34 -48z m757 35 c0 -5 -2 -10 -4 -10 -3 0 -8 5 -11 10 -3 6
-1 10 4 10 6 0 11 -4 11 -10z m1707 4 c-3 -3 -12 -4 -19 -1 -8 3 -5 6 6 6 11
1 17 -2 13 -5z m-2397 -28 c0 -2 -7 -9 -15 -16 -13 -11 -14 -10 -9 4 5 14 24
23 24 12z m31 -19 c-10 -9 -11 -8 -5 6 3 10 9 15 12 12 3 -3 0 -11 -7 -18z
m1539 -27 c0 -5 -5 -10 -11 -10 -5 0 -7 5 -4 10 3 6 8 10 11 10 2 0 4 -4 4
-10z m-824 -17 c-4 -9 -1 -20 6 -24 17 -11 5 -21 -15 -13 -13 5 -14 10 -5 30
13 27 24 33 14 7z m799 -23 c3 -5 1 -10 -4 -10 -6 0 -11 5 -11 10 0 6 2 10 4
10 3 0 8 -4 11 -10z m848 -5 c-3 -9 -8 -14 -10 -11 -3 3 -2 9 2 15 9 16 15 13
8 -4z m-2443 -34 c0 -3 -4 -13 -10 -21 -5 -9 -5 -19 1 -26 6 -8 2 -10 -15 -7
-18 4 -23 11 -22 27 4 33 14 46 31 39 8 -3 15 -8 15 -12z m46 -1 c0 -11 -1
-20 -2 -20 0 0 -9 9 -19 20 -18 19 -17 20 1 20 13 0 20 -7 20 -20z m1645 -17
c-12 -20 -14 -14 -5 12 4 9 9 14 11 11 3 -2 0 -13 -6 -23z m-31 7 c0 -5 -7
-10 -15 -10 -8 0 -15 5 -15 10 0 6 7 10 15 10 8 0 15 -4 15 -10z m-1720 -10
c0 -5 -4 -10 -10 -10 -5 0 -10 5 -10 10 0 6 5 10 10 10 6 0 10 -4 10 -10z
m-650 -32 c8 -13 45 -63 82 -113 45 -60 68 -99 68 -117 0 -16 -3 -28 -7 -28
-14 1 -212 265 -213 283 0 16 56 -4 70 -25z m3155 2 c3 -5 1 -10 -4 -10 -6 0
-11 5 -11 10 0 6 2 10 4 10 3 0 8 -4 11 -10z m-795 -20 c0 -5 -2 -10 -4 -10
-3 0 -8 5 -11 10 -3 6 -1 10 4 10 6 0 11 -4 11 -10z m-834 -27 c-7 -7 -26 7
-26 19 0 6 6 6 15 -2 9 -7 13 -15 11 -17z m1618 11 c3 -8 2 -12 -4 -9 -6 3
-10 10 -10 16 0 14 7 11 14 -7z m-2384 -9 c0 -8 -4 -15 -10 -15 -5 0 -10 7
-10 15 0 8 5 15 10 15 6 0 10 -7 10 -15z m3313 -88 c45 -30 126 -82 180 -117
53 -34 97 -66 97 -70 0 -11 -160 -162 -240 -226 -79 -64 -204 -154 -213 -154
-2 0 -7 9 -10 20 -3 11 -1 20 4 20 5 0 9 7 9 15 0 8 5 15 11 15 8 0 8 5 -1 15
-9 10 -9 15 -1 15 6 0 11 12 11 28 0 19 3 23 9 13 5 -8 11 10 16 53 3 36 10
66 15 66 4 0 7 11 5 25 -1 14 1 28 5 30 8 5 13 85 14 218 0 48 1 87 3 87 2 0
40 -24 86 -53z m-3409 12 c3 -17 6 -47 6 -65 0 -24 5 -34 15 -34 8 0 15 -5 15
-11 0 -5 -4 -7 -10 -4 -5 3 -10 -3 -10 -14 0 -10 6 -21 13 -24 9 -3 9 -7 -1
-20 -11 -13 -10 -17 5 -26 17 -9 17 -11 -2 -25 -15 -12 -17 -16 -5 -17 8 -1
20 -1 25 1 6 1 5 -4 -2 -11 -13 -13 -7 -39 15 -56 10 -8 11 -13 4 -13 -7 0
-12 -7 -12 -15 0 -8 4 -15 9 -15 5 0 15 -26 22 -57 12 -58 33 -101 46 -95 10
4 13 -30 4 -46 -13 -23 -212 132 -388 302 l-83 80 0 58 0 58 155 0 155 0 0 40
c0 48 15 53 24 9z m2481 21 c3 -5 1 -10 -4 -10 -6 0 -11 5 -11 10 0 6 2 10 4
10 3 0 8 -4 11 -10z m-5 -40 c0 -5 -2 -10 -4 -10 -3 0 -8 5 -11 10 -3 6 -1 10
4 10 6 0 11 -4 11 -10z m-2400 -70 c0 -5 -5 -10 -11 -10 -5 0 -7 5 -4 10 3 6
8 10 11 10 2 0 4 -4 4 -10z m39 -162 c1 -5 -9 -8 -21 -8 -16 0 -19 3 -10 9 7
4 12 12 11 17 -4 21 3 27 11 9 5 -11 9 -23 9 -27z m3672 -14 c12 -15 5 -25
-61 -86 -133 -123 -278 -238 -406 -324 -69 -46 -130 -84 -135 -84 -5 0 -9 10
-9 23 1 16 19 33 73 67 122 76 300 215 409 319 56 55 106 100 109 101 4 0 13
-7 20 -16z m-1489 -26 c-7 -7 -12 -8 -12 -2 0 14 12 26 19 19 2 -3 -1 -11 -7
-17z m-2560 -56 c35 -33 79 -73 98 -90 l35 -31 -35 -1 c-29 0 -47 10 -103 61
-54 48 -67 66 -67 90 0 16 2 29 5 29 3 0 33 -26 67 -58z m2508 14 c0 -11 -19
-15 -25 -6 -3 5 1 10 9 10 9 0 16 -2 16 -4z m-2115 -16 c3 -6 -1 -7 -9 -4 -18
7 -21 14 -7 14 6 0 13 -4 16 -10z m32 -54 c-3 -7 -1 -19 4 -25 5 -6 2 -5 -7 3
-9 8 -13 19 -10 25 10 16 19 14 13 -3z m3063 -32 c0 -8 -4 -12 -10 -9 -5 3
-10 10 -10 16 0 5 5 9 10 9 6 0 10 -7 10 -16z m-3019 -61 c8 -9 9 -14 2 -10
-6 4 -13 1 -16 -5 -3 -7 -4 -3 -4 10 1 26 1 26 18 5z m1439 -98 c0 -8 -4 -15
-10 -15 -5 0 -7 7 -4 15 4 8 8 15 10 15 2 0 4 -7 4 -15z m-1489 -77 c46 -30
100 -64 119 -76 19 -12 31 -22 27 -22 -12 0 20 -30 32 -30 6 0 11 -3 11 -7 0
-5 12 -14 27 -20 21 -10 29 -10 36 0 6 8 7 4 4 -10 -5 -24 8 -33 15 -11 3 7 7
8 11 2 3 -5 2 -15 -2 -22 -8 -14 -124 44 -272 134 -108 67 -125 82 -134 118
-6 29 -6 29 18 13 13 -8 61 -39 108 -69z m2619 42 c0 -5 -4 -10 -10 -10 -5 0
-10 5 -10 10 0 6 5 10 10 10 6 0 10 -4 10 -10z m-1046 -21 c-6 -11 -24 -2 -24
11 0 5 7 7 15 4 8 -4 12 -10 9 -15z m35 -45 c15 10 14 -7 -1 -23 -11 -10 -9
-11 6 -5 16 6 18 4 13 -10 -5 -14 -3 -17 8 -12 8 3 15 1 15 -4 0 -6 7 -10 15
-10 8 0 15 -4 15 -10 0 -5 -5 -10 -11 -10 -5 0 -8 -4 -5 -8 3 -5 -3 -18 -14
-30 -13 -14 -16 -23 -9 -28 7 -4 7 -10 1 -16 -6 -6 -2 -24 10 -50 11 -24 16
-43 10 -47 -15 -10 -37 -55 -22 -46 7 4 16 2 21 -6 13 -22 -10 -29 -105 -29
l-89 0 23 20 c13 11 19 20 15 20 -5 0 -4 5 3 12 7 7 12 22 12 33 0 12 16 39
35 60 22 25 33 47 30 60 -2 11 -4 23 -4 26 -1 4 -11 9 -23 13 -13 3 -33 22
-46 42 -18 27 -19 34 -7 26 23 -12 62 7 69 33 5 16 8 17 15 6 5 -7 14 -10 20
-7z m911 -4 c-19 -13 -30 -13 -30 0 0 6 10 10 23 10 18 0 19 -2 7 -10z m10
-20 c0 -5 -4 -10 -10 -10 -5 0 -10 5 -10 10 0 6 5 10 10 10 6 0 10 -4 10 -10z
m-75 -20 c3 -5 1 -10 -4 -10 -6 0 -11 5 -11 10 0 6 2 10 4 10 3 0 8 -4 11 -10z
m280 -110 c3 -5 2 -10 -4 -10 -5 0 -13 5 -16 10 -3 6 -2 10 4 10 5 0 13 -4 16
-10z m-1046 -32 c-9 -17 -9 -23 0 -26 13 -4 5 -22 -10 -22 -6 0 -8 4 -5 9 4 5
0 12 -6 14 -10 4 -9 8 2 16 8 6 11 11 7 11 -12 0 2 20 14 20 6 0 5 -9 -2 -22z
m966 -48 c3 -5 1 -10 -4 -10 -6 0 -11 5 -11 10 0 6 2 10 4 10 3 0 8 -4 11 -10z
m-1885 -20 c0 -5 -7 -10 -15 -10 -8 0 -15 5 -15 10 0 6 7 10 15 10 8 0 15 -4
15 -10z m110 -21 c0 -4 -7 -6 -15 -3 -8 4 -15 10 -15 15 0 4 7 6 15 3 8 -4 15
-10 15 -15z m1650 9 c0 -9 -23 -16 -37 -10 -21 7 -14 17 12 17 14 0 25 -3 25
-7z m-2010 -6 c0 -13 -12 -22 -22 -16 -10 6 -1 24 13 24 5 0 9 -4 9 -8z m75
-10 c-3 -3 -11 0 -18 7 -9 10 -8 11 6 5 10 -3 15 -9 12 -12z m198 -8 c-4 -10
-9 -12 -15 -6 -12 12 -1 35 12 27 5 -3 6 -13 3 -21z m1628 3 c-13 -13 -26 -3
-16 12 3 6 11 8 17 5 6 -4 6 -10 -1 -17z m-35 -2 c-3 -9 0 -15 9 -15 8 0 15
-4 15 -10 0 -16 -27 -11 -34 6 -9 23 -7 34 5 34 6 0 9 -7 5 -15z m-1156 1 c0
-3 -4 -8 -10 -11 -5 -3 -10 -1 -10 4 0 6 5 11 10 11 6 0 10 -2 10 -4z m-383
-36 c4 -12 3 -13 -5 -1 -5 7 -15 10 -21 7 -6 -4 -11 -2 -11 4 0 17 33 8 37
-10z m32 3 c0 -5 -4 -17 -9 -28 -8 -18 -9 -17 -9 8 -1 15 4 27 9 27 6 0 10 -3
9 -7z m901 -23 c0 -5 -4 -10 -10 -10 -5 0 -10 5 -10 10 0 6 5 10 10 10 6 0 10
-4 10 -10z m70 -20 c0 -5 -5 -10 -11 -10 -5 0 -7 5 -4 10 3 6 8 10 11 10 2 0
4 -4 4 -10z m-985 -20 c8 -13 -5 -13 -25 0 -13 8 -13 10 2 10 9 0 20 -4 23
-10z m55 -10 c0 -5 -2 -10 -4 -10 -3 0 -8 5 -11 10 -3 6 -1 10 4 10 6 0 11 -4
11 -10z m110 -20 c0 -5 -9 -10 -20 -10 -11 0 -20 5 -20 10 0 6 9 10 20 10 11
0 20 -4 20 -10z m100 -1 c0 -8 4 -8 13 -2 7 6 69 6 162 1 83 -5 234 -7 338 -5
104 3 190 1 193 -4 3 -5 18 -9 35 -9 16 0 29 -4 29 -9 0 -12 -203 -25 -395
-24 -143 0 -342 15 -402 30 -37 9 -27 25 20 32 4 0 7 -4 7 -10z m-65 -9 c3 -5
1 -10 -4 -10 -6 0 -11 5 -11 10 0 6 2 10 4 10 3 0 8 -4 11 -10z"/>
<path d="M3265 5242 c-11 -2 -24 -9 -30 -16 -5 -7 -17 -17 -26 -22 -26 -14 -6
-51 37 -69 20 -8 40 -12 45 -9 5 3 9 0 9 -5 0 -6 9 -11 19 -11 11 0 27 -7 36
-16 13 -13 21 -14 40 -6 14 6 27 7 30 2 3 -4 -1 -11 -7 -14 -7 -4 3 -4 22 -2
19 3 29 2 23 -1 -19 -7 -15 -19 7 -20 11 -1 20 3 20 9 0 6 3 8 7 5 3 -4 12 1
20 11 9 11 12 11 7 2 -6 -13 -5 -13 7 -2 12 11 11 16 -9 32 -13 11 -20 25 -17
31 5 7 1 9 -13 5 -15 -5 -20 -2 -18 10 0 9 -8 21 -19 28 -11 6 -23 16 -27 21
-4 6 -8 6 -8 1 0 -5 -6 -3 -13 3 -8 6 -17 8 -21 4 -4 -4 -10 -2 -14 4 -4 7
-23 15 -41 18 -19 3 -37 7 -40 9 -3 1 -15 1 -26 -2z m45 -62 c0 -5 -12 -7 -27
-5 -40 5 -40 6 -18 14 22 9 45 4 45 -9z"/>
<path d="M3140 4640 c0 -5 -3 -9 -7 -9 -32 5 -55 -2 -49 -17 3 -8 2 -13 -3
-10 -17 11 -32 -23 -27 -63 2 -23 1 -43 -4 -46 -7 -5 -6 -45 4 -100 2 -11 4
-30 5 -42 0 -12 7 -28 15 -36 8 -8 17 -34 21 -59 5 -34 13 -49 31 -59 13 -7
25 -21 25 -31 3 -35 4 -38 27 -53 12 -9 22 -21 22 -26 0 -5 4 -15 10 -22 30
-38 58 -67 64 -67 4 0 21 -16 38 -36 17 -19 37 -33 44 -30 7 3 15 -1 17 -8 5
-12 73 -28 122 -29 40 -1 80 15 105 42 15 15 31 26 36 24 5 -2 19 18 29 44 44
106 12 236 -85 343 -22 24 -40 48 -40 53 0 6 -10 19 -22 31 -13 12 -35 38 -50
58 -16 20 -36 39 -45 42 -10 3 -27 19 -38 36 -11 16 -23 30 -26 30 -4 0 -24 8
-45 17 -22 9 -43 16 -48 14 -5 -1 -16 1 -25 5 -29 13 -45 13 -60 1 -11 -9 -15
-9 -18 1 -5 14 -23 16 -23 2z m131 -71 c23 -11 47 -18 54 -15 9 3 12 0 8 -10
-3 -9 9 -28 31 -49 75 -70 21 -125 -64 -65 -15 11 -30 17 -33 13 -4 -3 -11 6
-16 19 -5 14 -21 34 -35 46 -26 20 -31 37 -20 66 8 21 27 20 75 -5z m-91 -19
c0 -5 -4 -10 -10 -10 -5 0 -10 5 -10 10 0 6 5 10 10 10 6 0 10 -4 10 -10z
m-35 -51 c11 -16 1 -19 -13 -3 -7 8 -8 14 -3 14 5 0 13 -5 16 -11z m90 -29 c3
-4 -7 -7 -20 -7 -14 0 -27 3 -30 7 -3 4 7 8 20 8 14 0 27 -4 30 -8z"/>
<path d="M2460 4609 c0 -6 -8 -8 -19 -4 -11 3 -21 0 -24 -8 -3 -8 -17 -17 -30
-21 -30 -7 -127 -100 -127 -121 0 -8 -6 -15 -14 -15 -14 0 -51 -74 -49 -97 0
-7 -5 -13 -11 -13 -9 0 -37 -53 -41 -80 0 -3 -7 -16 -15 -30 -17 -31 -26 -170
-10 -170 5 0 10 -9 10 -20 0 -11 5 -20 10 -20 6 0 10 -9 10 -20 0 -11 7 -20
15 -20 8 0 15 -6 15 -14 0 -23 55 -42 114 -40 43 1 64 8 90 28 19 14 37 26 41
26 11 0 75 63 75 74 0 6 11 23 25 38 25 27 45 66 52 101 1 10 9 30 17 45 22
44 39 113 41 175 3 56 2 58 -19 53 -11 -3 -24 -6 -28 -6 -5 0 -8 -12 -8 -27 0
-17 -13 -41 -30 -60 -28 -31 -48 -44 -35 -23 8 12 -7 13 -20 2 -6 -5 -17 -1
-27 10 -10 10 -13 18 -8 18 6 0 9 3 8 8 -1 6 9 49 28 115 6 20 50 67 63 67 9
0 24 -39 22 -54 -1 -5 4 -13 11 -17 11 -7 11 -9 0 -9 -7 0 -11 -4 -8 -9 3 -4
17 -6 31 -3 26 4 35 35 15 47 -6 4 -9 12 -8 18 5 24 -35 67 -71 77 -47 13 -91
13 -91 -1z m-260 -309 c0 -5 -2 -10 -4 -10 -3 0 -8 5 -11 10 -3 6 -1 10 4 10
6 0 11 -4 11 -10z m350 -15 c0 -9 -6 -12 -16 -8 -13 5 -13 7 -2 14 17 11 18
11 18 -6z"/>
<path d="M3728 4453 c-4 -8 -2 -64 2 -73 2 -3 4 -9 5 -15 5 -23 19 -51 32 -58
7 -4 13 -18 13 -30 0 -16 -3 -19 -9 -8 -15 24 -30 3 -21 -28 4 -16 5 -33 2
-37 -4 -5 1 -2 11 5 9 8 20 11 24 8 3 -4 14 -2 25 4 16 9 19 17 14 42 -4 18
-8 49 -9 69 -1 21 -5 38 -8 38 -4 0 -10 12 -14 27 -10 40 -25 54 -48 47 -13
-4 -17 -2 -13 5 4 6 5 11 2 11 -3 0 -6 -3 -8 -7z"/>
<path d="M3787 4109 c7 -9 10 -18 7 -21 -2 -3 1 -8 8 -11 9 -3 14 2 14 14 0
10 -2 16 -5 14 -2 -3 -11 1 -20 8 -14 10 -14 10 -4 -4z"/>
<path d="M3757 3994 c6 -15 23 -19 23 -5 0 5 -7 11 -14 14 -10 4 -13 1 -9 -9z"/>
<path d="M2850 3835 c-7 -8 -20 -13 -30 -10 -20 6 -42 -30 -42 -69 0 -25 23
-58 39 -55 4 1 16 -1 25 -5 9 -4 26 -3 37 3 16 9 22 8 30 -6 9 -15 12 -16 20
-4 5 8 16 11 24 8 10 -4 24 7 41 33 l25 38 -23 34 c-17 25 -29 33 -52 32 -16
0 -32 4 -36 10 -6 8 -11 6 -18 -4 -8 -12 -12 -12 -18 -2 -7 10 -11 10 -22 -3z
m75 -35 c3 -5 1 -10 -4 -10 -6 0 -11 5 -11 10 0 6 2 10 4 10 3 0 8 -4 11 -10z"/>
<path d="M2235 3810 c-8 -16 -15 -35 -15 -43 0 -24 29 -28 50 -7 11 11 17 20
13 20 -4 0 -2 5 5 12 21 21 14 48 -13 48 -17 0 -29 -9 -40 -30z"/>
<path d="M3499 3813 c-33 -9 -58 -93 -27 -93 6 0 24 14 40 31 39 41 33 74 -13
62z"/>
<path d="M2417 3779 c-4 -15 -11 -20 -23 -15 -12 4 -15 2 -10 -9 3 -8 1 -15
-4 -15 -6 0 -10 -4 -10 -10 0 -18 26 -10 48 15 22 26 29 55 13 55 -5 0 -11
-10 -14 -21z"/>
<path d="M2320 3764 c0 -20 4 -25 16 -20 9 3 19 6 23 6 4 0 7 9 7 20 0 14 -7
20 -23 20 -18 0 -23 -6 -23 -26z"/>
<path d="M4140 2000 c0 -5 5 -10 11 -10 5 0 7 5 4 10 -3 6 -8 10 -11 10 -2 0
-4 -4 -4 -10z"/>
<path d="M4460 1596 c0 -14 5 -28 10 -31 6 -3 10 -15 10 -26 0 -10 7 -19 15
-19 8 0 15 -5 15 -11 0 -5 -5 -7 -11 -3 -8 5 -8 1 0 -14 21 -39 26 -30 23 34
-3 60 -6 66 -33 79 -28 15 -29 15 -29 -9z"/>
<path d="M4388 1371 c-6 -10 -17 -17 -24 -14 -16 6 -58 -35 -75 -74 -8 -18
-19 -33 -25 -33 -6 0 -10 -12 -11 -27 0 -16 -3 -38 -7 -50 -4 -13 -4 -23 1
-23 4 0 9 -11 9 -25 3 -40 12 -55 35 -55 14 0 19 -5 16 -14 -7 -17 48 -46 86
-46 33 0 58 10 52 20 -3 4 6 11 20 14 14 4 25 11 25 18 0 6 7 16 15 22 8 6 18
31 21 56 3 25 7 51 9 58 3 6 -3 12 -13 13 -10 0 -12 3 -4 6 6 2 12 11 12 20 0
10 -6 13 -22 8 -21 -6 -22 -5 -5 8 19 15 23 37 7 37 -5 0 -10 6 -10 13 0 20
-60 83 -68 72 -12 -16 -32 -16 -26 0 9 21 -4 19 -18 -4z m-38 -131 c0 -5 -2
-10 -4 -10 -3 0 -8 5 -11 10 -3 6 -1 10 4 10 6 0 11 -4 11 -10z"/>
<path d="M4043 1173 c-3 -7 -9 -10 -14 -7 -15 9 -39 -16 -39 -41 0 -13 6 -25
13 -28 10 -4 10 -7 0 -18 -13 -13 -19 -48 -7 -36 7 7 34 -17 34 -31 0 -12 52
-35 59 -25 3 4 15 8 26 8 18 -1 54 28 56 44 6 43 5 49 -10 43 -14 -5 -14 -3
-3 11 18 21 7 53 -26 75 -30 20 -82 23 -89 5z m32 -123 c3 -5 1 -10 -4 -10 -6
0 -11 5 -11 10 0 6 2 10 4 10 3 0 8 -4 11 -10z"/>
<path d="M1610 1851 c0 -6 4 -13 10 -16 6 -3 7 1 4 9 -7 18 -14 21 -14 7z"/>
<path d="M1660 1240 c0 -5 5 -10 11 -10 5 0 7 5 4 10 -3 6 -8 10 -11 10 -2 0
-4 -4 -4 -10z"/>
<path d="M1742 1083 c-18 -20 -23 -35 -19 -59 6 -35 34 -74 54 -74 7 0 13 -5
13 -11 0 -7 10 -9 25 -5 16 4 25 2 25 -5 0 -7 8 -5 19 5 11 10 17 24 14 32 -3
8 3 21 13 29 12 9 15 18 9 22 -5 5 -11 15 -13 23 -5 19 -22 40 -34 40 -5 0
-16 7 -24 15 -23 23 -56 18 -82 -12z m62 -81 c3 -5 -1 -9 -9 -9 -8 0 -12 4 -9
9 3 4 7 8 9 8 2 0 6 -4 9 -8z m46 -16 c0 -2 -7 -7 -16 -10 -8 -3 -12 -2 -9 4
6 10 25 14 25 6z"/>
<path d="M1792 884 c-26 -11 -47 -38 -44 -56 1 -4 3 -21 4 -37 1 -17 6 -31 10
-31 4 0 8 -6 8 -14 0 -17 90 -107 100 -101 4 3 10 -2 14 -10 3 -9 19 -15 40
-15 19 0 46 -4 60 -9 17 -7 26 -7 30 2 3 9 7 9 13 0 7 -10 13 -10 28 1 11 8
26 11 34 8 9 -3 12 -1 7 6 -4 7 -2 12 4 12 21 0 36 25 34 55 -1 17 -3 31 -4
33 -3 3 -7 18 -9 33 0 6 -8 9 -15 6 -10 -4 -13 -1 -10 8 3 8 -3 16 -15 20 -12
3 -19 10 -17 14 8 13 -72 53 -93 46 -11 -3 -24 1 -32 11 -13 16 -12 16 9 5 12
-6 22 -8 22 -2 0 13 -41 21 -74 15 -15 -2 -25 -1 -22 4 8 13 -49 10 -82 -4z
m138 -224 c0 -5 -2 -10 -4 -10 -3 0 -8 5 -11 10 -3 6 -1 10 4 10 6 0 11 -4 11
-10z m105 -20 c3 -5 1 -10 -4 -10 -6 0 -11 5 -11 10 0 6 2 10 4 10 3 0 8 -4
11 -10z"/>
</g>
</svg>
