<?xml version="1.0" standalone="no"?>
<!DOCTYPE svg PUBLIC "-//W3C//DTD SVG 20010904//EN"
 "http://www.w3.org/TR/2001/REC-SVG-20010904/DTD/svg10.dtd">
<svg version="1.0" xmlns="http://www.w3.org/2000/svg"
 width="894.000000pt" height="894.000000pt" viewBox="0 0 894.000000 894.000000"
 preserveAspectRatio="xMidYMid meet">
<metadata>
Created by potrace 1.11, written by Peter Selinger 2001-2013
</metadata>
<g transform="translate(0.000000,894.000000) scale(0.100000,-0.100000)"
fill="#000000" stroke="none">
<path d="M4129 6646 c-3 -3 -41 -8 -85 -10 -43 -3 -79 -5 -79 -6 0 -1 -20 -3
-44 -5 -54 -4 -127 -13 -161 -20 -13 -2 -42 -7 -65 -10 -46 -7 -79 -13 -115
-20 -14 -3 -47 -9 -75 -15 -58 -11 -74 -14 -135 -29 -25 -7 -56 -14 -70 -17
-73 -15 -352 -103 -365 -115 -5 -5 -15 -9 -23 -9 -8 0 -28 -6 -45 -14 -18 -7
-68 -29 -112 -47 -44 -18 -82 -37 -83 -41 -2 -5 -7 -6 -12 -3 -5 3 -15 -1 -22
-9 -8 -7 -25 -17 -38 -21 -14 -4 -37 -16 -52 -26 -14 -11 -29 -19 -32 -19 -14
0 -174 -112 -203 -142 -17 -18 -42 -54 -56 -79 -21 -40 -28 -59 -42 -111 -2
-5 -4 -10 -5 -13 -4 -8 -6 -17 -14 -75 -5 -30 -10 -64 -12 -75 -5 -23 -5 -272
0 -325 5 -50 15 -121 21 -150 3 -14 7 -38 9 -55 2 -16 9 -50 16 -75 7 -25 13
-52 15 -60 10 -48 29 -118 37 -133 5 -10 12 -29 14 -42 6 -36 71 -200 120
-304 24 -51 44 -95 44 -96 0 -2 25 -47 55 -100 30 -54 55 -99 55 -101 0 -1 32
-51 71 -111 135 -203 345 -445 474 -545 17 -12 37 -30 45 -39 26 -27 101 -83
205 -153 99 -66 368 -206 397 -206 8 0 18 -3 22 -8 4 -4 11 -7 14 -8 4 0 14
-3 22 -7 25 -10 107 -36 132 -42 13 -3 52 -12 88 -20 36 -8 81 -18 100 -21 19
-3 46 -7 60 -10 129 -22 477 -22 560 1 8 2 35 7 60 10 100 14 315 76 410 117
98 43 296 144 310 158 3 3 32 23 65 44 226 147 468 387 663 657 34 47 62 91
62 97 0 5 4 12 8 14 10 4 110 173 150 253 77 153 176 398 189 464 2 14 7 29
11 35 4 6 7 13 7 16 1 3 11 46 23 95 12 50 24 107 28 129 3 21 8 48 10 60 6
27 13 87 15 134 2 21 7 43 12 50 6 8 6 12 -1 12 -9 0 -7 48 3 58 2 2 0 15 -5
28 -5 13 -6 26 -1 28 5 3 7 18 5 33 -2 16 -6 60 -8 98 -10 157 -56 294 -125
369 -14 15 -57 49 -96 75 -61 41 -99 63 -225 132 -14 7 -31 14 -38 15 -8 1
-22 10 -33 20 -10 9 -19 14 -19 10 0 -3 -15 1 -32 10 -35 18 -253 103 -279
109 -9 2 -47 13 -85 25 -138 44 -425 111 -534 126 -19 2 -42 6 -50 9 -14 4
-80 14 -145 21 -16 2 -48 5 -71 8 -22 3 -67 9 -100 12 -76 8 -808 17 -815 10z"/>
<path d="M1594 6612 c-22 -10 -40 -32 -63 -77 -17 -35 -34 -72 -36 -82 -2 -10
-10 -43 -19 -73 -8 -30 -17 -73 -20 -95 -4 -23 -8 -50 -10 -62 -15 -76 -29
-257 -29 -373 0 -81 12 -268 19 -301 3 -13 7 -35 8 -49 3 -21 18 -116 30 -185
1 -11 5 -27 8 -35 3 -8 11 -42 18 -75 6 -33 15 -71 21 -85 5 -14 10 -34 12
-45 2 -11 6 -27 9 -35 3 -8 19 -58 36 -110 25 -79 39 -118 58 -160 1 -3 5 -15
9 -28 16 -48 144 -301 194 -381 28 -45 51 -84 51 -87 0 -2 6 -12 14 -21 8 -10
48 -63 89 -118 95 -127 146 -184 277 -315 118 -117 159 -154 270 -240 24 -19
50 -40 58 -47 7 -7 26 -20 42 -30 17 -9 30 -21 30 -25 0 -4 7 -8 15 -8 8 0 15
-4 15 -8 0 -5 11 -14 25 -20 28 -13 35 -35 8 -25 -21 7 -248 158 -263 173 -3
3 -34 28 -70 55 -36 28 -67 52 -70 55 -3 3 -43 39 -90 80 -47 41 -93 84 -103
95 -10 11 -51 54 -91 95 -39 41 -92 100 -116 130 -24 30 -55 66 -67 79 -13 13
-23 27 -23 32 0 4 -6 14 -13 21 -31 31 -179 264 -222 348 -54 107 -84 169 -97
200 -9 19 -23 51 -32 72 -9 20 -16 38 -16 41 0 2 -8 22 -17 43 -9 22 -18 46
-19 55 -2 9 -9 29 -15 45 -7 16 -13 36 -15 44 -2 8 -21 71 -44 139 -42 129
-80 213 -132 290 -49 73 -186 200 -215 201 -7 0 -13 4 -13 9 0 16 -163 90
-212 97 -42 6 -49 4 -72 -21 -40 -43 -50 -136 -32 -305 14 -131 17 -156 21
-180 9 -51 17 -96 20 -115 8 -58 53 -234 73 -285 3 -8 6 -17 7 -20 1 -3 5 -14
9 -25 4 -11 12 -33 18 -50 23 -67 110 -253 160 -339 39 -68 129 -206 149 -230
5 -6 29 -36 52 -66 69 -90 86 -109 222 -245 127 -127 163 -160 275 -248 47
-38 184 -137 230 -167 91 -60 141 -90 150 -90 5 0 10 -4 10 -10 0 -5 7 -10 15
-10 8 0 15 -3 15 -7 0 -5 10 -13 23 -19 12 -6 65 -33 117 -61 110 -58 199
-104 202 -103 2 1 36 -15 76 -35 40 -19 75 -35 77 -35 2 0 28 -11 57 -24 48
-21 85 -36 98 -41 3 -1 13 -5 22 -9 9 -4 22 -9 30 -10 15 -3 35 -11 96 -37 23
-10 42 -16 42 -13 0 2 15 -3 33 -12 17 -10 27 -19 21 -21 -13 -4 -284 84 -301
99 -7 6 -13 8 -13 5 0 -3 -37 11 -82 30 -46 19 -89 35 -95 36 -7 0 -13 5 -13
10 0 6 -3 8 -6 5 -5 -5 -51 12 -139 52 -59 26 -334 162 -360 177 -16 10 -31
21 -33 26 -2 4 -9 7 -16 7 -13 0 -256 156 -266 170 -3 4 -10 9 -16 11 -6 2
-28 18 -49 34 -255 205 -452 408 -625 645 -30 41 -57 77 -60 80 -3 3 -21 30
-40 60 -19 30 -37 57 -40 60 -3 3 -14 22 -25 43 -11 20 -23 37 -27 37 -5 0 -8
4 -8 10 0 21 -64 108 -114 155 -52 49 -248 159 -328 184 -47 15 -117 21 -124
9 -3 -4 -10 -6 -15 -3 -5 4 -20 -5 -34 -19 -37 -37 -33 -111 12 -216 3 -8 7
-19 7 -25 1 -5 10 -28 19 -50 10 -22 23 -53 30 -70 52 -128 254 -471 316 -534
9 -10 32 -37 51 -62 156 -201 437 -444 700 -605 136 -84 213 -128 220 -127 3
1 12 -5 20 -12 8 -7 18 -14 22 -15 4 -1 63 -27 130 -59 124 -58 155 -72 173
-77 6 -1 44 -16 85 -34 90 -38 426 -150 450 -150 9 0 20 -3 24 -7 4 -4 19 -9
33 -11 15 -2 34 -7 44 -13 10 -5 28 -9 41 -9 13 0 29 -5 36 -12 7 -7 12 -9 12
-6 0 3 17 2 38 -3 62 -16 76 -19 102 -24 77 -16 94 -22 97 -32 3 -8 -6 -8 -34
-1 -21 5 -45 9 -53 10 -8 0 -46 6 -85 13 -38 7 -77 13 -85 13 -8 0 -26 3 -40
6 -51 12 -76 16 -110 21 -33 5 -49 7 -110 20 -14 2 -38 7 -55 10 -33 5 -55 10
-130 25 -83 17 -88 18 -158 39 -63 18 -120 29 -192 35 -38 3 -126 -13 -141
-25 -7 -5 -16 -9 -20 -7 -27 7 -171 -99 -175 -130 -14 -98 24 -147 172 -218
72 -35 169 -66 244 -78 11 -2 34 -6 50 -9 17 -4 48 -9 70 -12 23 -3 52 -8 65
-10 14 -3 45 -7 70 -10 77 -9 124 -14 160 -19 58 -7 131 -15 200 -21 36 -3 91
-7 123 -10 230 -21 652 -37 1038 -39 220 -1 309 -5 320 -14 52 -43 78 -62 87
-62 6 0 12 -4 14 -9 4 -10 117 -68 172 -88 153 -54 296 -68 392 -38 119 38
152 50 199 73 65 32 165 93 165 101 0 3 10 13 23 21 18 11 84 14 353 15 182 1
336 5 342 9 6 3 13 2 17 -4 4 -6 11 -7 17 -4 6 4 56 8 112 10 92 2 176 7 381
19 77 5 185 13 255 20 25 3 72 7 105 10 33 3 76 8 95 10 19 3 58 7 85 10 28 3
68 8 90 11 22 4 51 8 65 9 33 4 115 18 185 30 153 29 351 119 398 181 22 29
28 79 14 114 -25 60 -142 136 -237 155 -84 16 -195 4 -305 -32 -23 -7 -293
-64 -330 -69 -22 -3 -51 -8 -65 -10 -14 -3 -34 -7 -45 -9 -11 -2 -31 -5 -45
-8 -79 -16 -107 -20 -125 -22 -11 -1 -38 -6 -60 -10 -22 -5 -51 -9 -65 -11
-14 -1 -25 -3 -25 -4 0 -1 -20 -4 -45 -6 -56 -7 -43 14 14 21 21 3 41 7 45 10
4 2 23 7 42 10 47 8 293 72 354 93 28 9 52 17 55 17 3 1 25 7 50 15 25 7 50
15 55 16 6 1 64 23 130 47 188 70 424 175 540 240 22 13 65 37 95 53 323 179
669 477 871 749 24 33 47 62 52 63 4 2 7 10 7 18 0 8 4 14 8 14 5 0 14 10 21
23 6 12 19 34 29 48 80 122 230 424 247 499 2 8 11 35 19 59 24 67 21 127 -9
157 -22 22 -30 24 -82 19 -32 -3 -76 -10 -98 -16 -37 -9 -244 -105 -255 -118
-3 -3 -26 -23 -51 -43 -45 -36 -69 -69 -204 -278 -37 -58 -72 -106 -76 -108
-5 -2 -9 -8 -9 -13 0 -6 -5 -15 -10 -22 -6 -7 -29 -37 -53 -67 -23 -30 -45
-56 -49 -58 -5 -2 -8 -10 -8 -17 0 -7 -3 -15 -7 -17 -5 -1 -32 -32 -62 -68
-140 -167 -411 -415 -576 -525 -33 -22 -62 -43 -65 -46 -10 -12 -209 -129
-218 -129 -6 0 -17 -6 -24 -13 -17 -17 -279 -145 -398 -195 -117 -48 -134 -55
-140 -56 -3 -1 -9 -4 -15 -7 -5 -4 -28 -12 -50 -19 -22 -7 -44 -16 -50 -20
-24 -19 -318 -111 -327 -102 -7 7 15 17 82 37 3 1 16 6 30 12 14 6 58 22 98
37 40 14 94 36 120 47 26 12 67 30 92 41 77 33 265 122 270 129 3 3 20 12 38
20 17 8 32 17 32 21 0 5 6 8 13 8 19 0 276 155 372 224 113 81 198 147 263
203 139 121 144 126 277 267 112 119 269 338 341 476 16 30 33 58 37 61 5 3
10 12 11 20 2 8 19 49 39 91 20 43 50 117 67 165 28 78 35 100 43 138 2 6 5
15 9 20 6 10 44 186 52 240 2 17 5 30 6 30 2 0 9 53 26 220 17 161 6 264 -32
302 -25 26 -98 23 -155 -5 -25 -12 -51 -22 -57 -22 -7 0 -12 -3 -12 -7 0 -5
-21 -20 -48 -35 -75 -43 -158 -113 -207 -176 -59 -74 -128 -212 -161 -320 -58
-191 -154 -452 -185 -502 -5 -8 -12 -22 -15 -30 -27 -66 -186 -347 -204 -360
-4 -3 -13 -16 -20 -30 -11 -21 -64 -94 -80 -110 -3 -3 -16 -21 -29 -40 -14
-19 -33 -41 -43 -48 -10 -7 -18 -17 -18 -22 0 -20 -219 -242 -356 -360 -81
-71 -366 -280 -380 -280 -3 0 -17 -9 -31 -20 -14 -11 -29 -17 -34 -14 -5 3 48
48 117 100 69 52 158 122 197 155 96 82 283 272 354 362 32 39 60 74 63 77 41
38 269 400 252 400 -4 0 -2 4 3 8 10 7 105 206 109 227 1 6 8 21 16 35 7 14
12 25 11 25 -1 0 2 11 7 25 43 115 52 141 52 145 0 3 0 6 1 8 0 1 2 9 4 17 2
8 10 36 19 63 9 26 18 61 19 77 1 16 5 30 10 30 4 0 7 11 7 24 0 14 4 35 9 48
5 13 11 41 14 63 3 22 10 60 16 85 5 25 13 70 16 100 4 30 9 69 11 85 15 118
22 355 11 373 -4 6 -3 13 3 17 6 4 8 10 5 15 -3 5 -7 32 -10 62 -8 90 -14 152
-20 178 -2 13 -7 41 -10 61 -3 20 -10 50 -15 67 -5 18 -7 32 -4 32 3 0 0 9 -6
21 -7 11 -14 33 -16 47 -5 27 -47 116 -67 141 -11 12 -50 32 -72 36 -44 7
-180 -90 -310 -220 -170 -170 -235 -312 -212 -465 3 -19 6 -35 7 -35 1 0 3 -9
5 -20 1 -11 6 -38 9 -60 36 -232 18 -546 -46 -770 -6 -22 -12 -46 -14 -52 -18
-92 -171 -465 -199 -485 -5 -4 -6 -8 -2 -8 17 0 -224 -398 -297 -491 -12 -15
-30 -39 -41 -55 -112 -159 -264 -311 -470 -473 -109 -85 -449 -281 -488 -281
-8 0 -17 -4 -19 -8 -3 -8 -237 -85 -288 -95 -14 -3 -36 -8 -50 -11 -24 -6 -46
-10 -112 -21 -149 -26 -587 -22 -658 5 -3 1 -9 2 -13 1 -4 -1 -38 6 -75 15
-37 8 -78 18 -92 20 -36 7 -213 65 -225 74 -5 5 -14 8 -18 8 -27 0 -316 157
-428 234 -58 40 -183 135 -216 167 -18 16 -33 28 -33 26 0 -16 -209 213 -277
303 -73 97 -213 298 -213 306 0 2 -25 44 -55 94 -64 107 -205 385 -205 406 0
2 -8 21 -17 42 -9 22 -17 41 -18 44 -2 9 -26 84 -32 100 -4 8 -7 18 -8 23 -2
4 -4 9 -5 12 -1 3 -3 8 -4 13 -1 4 -5 13 -9 20 -5 6 -6 12 -3 12 2 0 0 15 -5
33 -13 43 -19 67 -24 99 -2 15 -6 31 -8 35 -3 4 -8 30 -11 57 -4 27 -9 52 -10
55 -7 12 -19 199 -19 286 2 118 13 249 28 320 23 109 23 110 12 165 -27 134
-82 225 -218 360 -58 58 -132 123 -165 145 -32 22 -61 43 -64 46 -6 8 -50 22
-70 23 -8 1 -29 -5 -46 -12z"/>
</g>
</svg>
